<svg width="1719" height="1697" viewBox="0 0 1719 1697" fill="none" xmlns="http://www.w3.org/2000/svg">
<path fill-rule="evenodd" clip-rule="evenodd" d="M1087.37 1035.36L1340.65 1278.5L963.238 1324.73C743.487 1348.9 619.927 1235.77 561.364 1187C457.513 1091.01 356.049 992.372 253.416 895.047L430.463 873.362L175.18 631.04L210.497 643.096L225.974 597.789L213.86 593.641L203.287 624.616L151.145 606.803L150.772 607.876L38.3784 501.189L229.967 477.723L233.329 486.418L199.795 492.299L192.954 504.39L252.067 537.822L259.23 525.157L218.921 502.368L250.539 496.39L250.757 496.031L243.364 476.062L1228.38 355.415L1040.32 652.784L875.964 672.713C773.561 685.85 699.092 773.967 700.724 875.059C700.884 885.99 702.286 894.231 704.968 905.025C713.512 939.573 730.943 970.11 754.284 994.604C792.684 1036.84 849.647 1061.36 910.484 1056.63C914.548 1056.34 918.817 1055.99 922.847 1055.49C993.115 1048.07 1017.25 1043.93 1087.38 1035.34L1087.37 1035.36Z" fill="#ADEA28"/>
<path d="M642.038 166.598L626.982 172.563C627.491 176.883 626.566 180.764 624.207 184.207C621.848 187.649 618.33 190.266 613.7 192.113C607.52 194.552 601.988 194.625 597.08 192.304C592.173 189.994 588.492 185.689 586.019 179.403C583.517 173.121 583.286 167.447 585.278 162.408C587.27 157.368 591.365 153.622 597.544 151.183C602.185 149.345 606.53 148.873 610.601 149.785C614.668 150.667 618.011 152.867 620.587 156.38L635.643 150.415C631.362 143.344 625.303 138.786 617.456 136.745C609.608 134.684 601.343 135.394 592.654 138.816C582.672 142.779 575.622 149.052 571.51 157.676C567.396 166.28 567.275 175.493 571.123 185.278C574.99 195.05 581.395 201.691 590.272 205.157C599.171 208.641 608.604 208.413 618.598 204.469C627.286 201.037 633.798 195.887 638.129 189.05C642.457 182.193 643.778 174.717 642.059 166.606L642.038 166.598Z" fill="white"/>
<path d="M718.1 136.72C715.422 126.862 709.743 119.649 701.044 115.093C692.332 110.508 682.6 109.685 671.855 112.603C661.09 115.523 653.104 121.146 647.9 129.49C642.706 137.834 641.434 146.946 644.1 156.785C646.779 166.642 652.458 173.855 661.156 178.412C669.868 182.996 679.6 183.819 690.345 180.901C701.11 177.981 709.096 172.359 714.3 164.014C719.494 155.671 720.766 146.558 718.1 136.72ZM700.838 157.996C697.885 163.002 693.238 166.352 686.869 168.069C680.531 169.782 674.813 169.243 669.742 166.419C664.692 163.602 661.275 158.983 659.553 152.575C657.802 146.17 658.426 140.492 661.359 135.488C664.313 130.482 668.96 127.132 675.328 125.416C681.667 123.702 687.385 124.241 692.456 127.066C697.506 129.882 700.923 134.501 702.645 140.91C704.396 147.314 703.772 152.992 700.838 157.996Z" fill="white"/>
<path d="M779.319 148.031L747.082 153.561L737.78 99.249L722.853 101.823L734.294 168.748L781.492 160.67L779.33 148.04L779.319 148.031Z" fill="white"/>
<path d="M835.799 97.1974C828.485 91.5244 818.717 89.1745 806.507 90.1663L780.09 92.3036L785.58 159.988L811.996 157.851C824.206 156.859 833.454 152.986 839.764 146.189C846.057 139.413 848.782 130.98 847.967 120.874C847.143 110.769 843.093 102.873 835.799 97.1974ZM832.027 122.171C832.575 128.784 831.079 134.095 827.542 138.115C824.005 142.144 818.337 144.481 810.545 145.103L799.684 146L796.256 103.864L807.137 102.965C814.919 102.344 820.892 103.728 825.035 107.12C829.151 110.534 831.497 115.546 832.026 122.161L832.027 122.171Z" fill="white"/>
<path d="M936.365 110.772C936.452 104.324 934.176 98.8195 929.525 94.241C924.846 89.686 918.365 87.1954 910.084 86.7891C901.846 86.3978 895.222 88.0856 890.183 91.8562C885.124 95.6292 882.475 100.487 882.171 106.398C881.994 109.966 882.575 113.068 883.909 115.736C885.24 118.374 887.027 120.462 889.262 121.931C891.528 123.407 894.031 124.591 896.836 125.447C899.632 126.313 902.387 127.174 905.12 128.018C907.85 128.843 910.355 129.634 912.658 130.339C914.963 131.064 916.803 132.018 918.204 133.257C919.601 134.466 920.247 135.958 920.155 137.753C920.047 140.244 918.806 142.119 916.461 143.374C914.116 144.628 910.896 145.153 906.821 144.947C902.301 144.735 898.894 143.571 896.585 141.496C894.242 139.395 893.064 136.85 893 133.855L878.06 133.126C878.067 136.057 878.522 138.873 879.481 141.516C880.422 144.181 881.908 146.689 883.947 149.028C885.967 151.37 888.829 153.266 892.486 154.753C896.175 156.245 900.461 157.101 905.378 157.355C914.085 157.779 921.223 156.18 926.758 152.59C932.325 149.017 935.224 144.148 935.535 138.045C935.716 134.346 935.149 131.111 933.847 128.379C932.525 125.649 930.753 123.519 928.492 122.002C926.223 120.507 923.669 119.309 920.83 118.427C918.002 117.545 915.187 116.691 912.431 115.819C909.655 114.95 907.102 114.175 904.787 113.451C902.484 112.746 900.624 111.795 899.177 110.592C897.763 109.405 897.077 107.917 897.177 106.102C897.282 103.923 898.431 102.2 900.64 100.902C902.868 99.6014 905.733 99.0491 909.258 99.2117C913.139 99.3912 916.136 100.495 918.314 102.485C920.462 104.479 921.536 106.997 921.519 110.062L936.366 110.782L936.365 110.772Z" fill="white"/>
<path d="M998.677 97.6896L992.789 137.632C992.082 142.554 990.185 146.232 987.13 148.682C984.057 151.143 979.865 151.959 974.512 151.194C969.177 150.407 965.384 148.393 963.174 145.158C960.967 141.942 960.194 137.856 960.933 132.95L966.792 93.0112L951.803 90.8171L945.977 130.359C944.591 139.767 946.481 147.384 951.63 153.231C956.789 159.077 963.798 162.672 972.63 163.958C981.464 165.263 989.2 163.852 995.829 159.736C1002.45 155.621 1006.46 148.863 1007.84 139.475L1013.67 99.9135L998.658 97.7019L998.677 97.6896Z" fill="white"/>
<path d="M1078.01 121.37C1074.93 116.599 1069.28 113.171 1061.07 111.134L1030.44 103.501L1014.03 169.395L1028.73 173.065L1034.96 148.102L1050.89 152.065C1058.9 154.067 1065.42 153.681 1070.49 150.934C1075.57 148.187 1078.85 143.774 1080.37 137.725C1081.9 131.604 1081.12 126.158 1078.01 121.37ZM1065.64 134.059C1065.02 136.542 1063.75 138.3 1061.76 139.309C1059.8 140.335 1057.2 140.442 1053.99 139.627L1038.06 135.664L1042.04 119.6L1057.97 123.583C1061.2 124.366 1063.44 125.714 1064.68 127.557C1065.93 129.419 1066.24 131.597 1065.63 134.06L1065.64 134.059Z" fill="white"/>
<path d="M1092.63 177.792L1110.33 125.643L1095.98 120.761L1074.14 185.064L1119.48 200.446L1123.62 188.312L1092.63 177.782L1092.63 177.792Z" fill="white"/>
<path d="M1194.06 172.662L1199.15 160.916L1150.48 139.787L1123.42 202.078L1172.11 223.206L1177.22 211.457L1142.46 196.352L1148.51 182.403L1181.86 196.885L1186.97 185.107L1153.62 170.644L1159.29 157.578L1194.08 172.66L1194.06 172.662Z" fill="white"/>
<path d="M1262.55 195.243L1230.82 207.583L1224.9 174.054L1212.76 167.239L1179.45 226.418L1192.13 233.539L1214.82 193.201L1220.88 224.809L1221.24 225.027L1251.39 213.777L1228.7 254.135L1241.38 261.256L1274.68 202.08L1262.55 195.243Z" fill="white"/>
<path d="M1325.21 253.024L1332.63 242.565L1289.28 211.938L1250.08 267.394L1293.43 298.022L1300.82 287.546L1269.87 265.666L1278.64 253.247L1308.32 274.224L1315.72 263.768L1286.04 242.791L1294.27 231.133L1325.23 253.012L1325.21 253.024Z" fill="white"/>
<path d="M1380.2 282.477L1350.78 316.587L1355.71 261.358L1344.25 251.458L1299.92 302.879L1311.08 312.523L1340.37 278.541L1335.48 333.543L1347.04 343.512L1391.37 292.091L1380.21 282.466L1380.2 282.477Z" fill="white"/>
<path d="M1398.3 298.828L1388.88 307.931L1402.98 322.496L1363.6 360.606L1374.15 371.513L1413.53 333.384L1427.62 347.928L1437.01 338.829L1398.3 298.828Z" fill="white"/>
<path d="M1464.44 369.573C1457.44 360.879 1449.06 355.84 1439.35 354.44C1429.61 353.025 1420.77 355.537 1412.82 361.941C1404.89 368.342 1400.57 376.448 1399.88 386.254C1399.2 396.06 1402.35 405.316 1409.35 413.98C1416.34 422.673 1424.72 427.713 1434.44 429.111C1444.19 430.527 1453.02 428.015 1460.97 421.611C1468.9 415.209 1473.22 407.103 1473.9 397.287C1474.61 387.479 1471.44 378.226 1464.44 369.562L1464.44 369.573ZM1459.47 394.25C1458.93 400.028 1456.08 405.001 1450.92 409.16C1445.75 413.318 1440.3 415.065 1434.54 414.36C1428.78 413.684 1423.82 410.766 1419.7 405.639C1415.56 400.514 1413.78 395.08 1414.32 389.302C1414.86 383.523 1417.71 378.55 1422.87 374.391C1428.04 370.233 1433.49 368.486 1439.25 369.192C1445.03 369.884 1449.97 372.785 1454.09 377.912C1458.23 383.038 1460.01 388.491 1459.47 394.25Z" fill="white"/>
<path d="M1510.23 432.734C1505.73 425.82 1500.49 421.425 1494.47 419.552C1488.46 417.679 1482.98 418.35 1478.01 421.589C1475 423.538 1472.83 425.819 1471.44 428.438C1470.08 431.082 1469.44 433.74 1469.57 436.425C1469.68 439.131 1470.19 441.849 1471.15 444.623C1472.08 447.4 1472.98 450.141 1473.91 452.849C1474.81 455.539 1475.66 458.044 1476.43 460.318C1477.19 462.612 1477.48 464.682 1477.32 466.516C1477.15 468.35 1476.31 469.772 1474.83 470.74C1472.74 472.094 1470.49 472.187 1468.1 471.021C1465.7 469.873 1463.4 467.566 1461.17 464.142C1458.71 460.372 1457.65 456.925 1458 453.82C1458.32 450.718 1459.7 448.242 1462.09 446.438L1453.94 433.906C1451.56 435.618 1449.56 437.636 1447.96 439.958C1446.36 442.28 1445.2 444.961 1444.5 447.958C1443.79 450.977 1443.93 454.425 1444.86 458.27C1445.81 462.093 1447.62 466.104 1450.29 470.22C1455.06 477.524 1460.51 482.397 1466.66 484.797C1472.82 487.175 1478.48 486.724 1483.61 483.376C1486.72 481.353 1488.99 479.019 1490.44 476.344C1491.91 473.686 1492.56 471.006 1492.47 468.277C1492.38 465.548 1491.84 462.793 1490.91 459.975C1489.95 457.16 1489.02 454.383 1488.1 451.625C1487.16 448.868 1486.31 446.343 1485.55 444.049C1484.78 441.755 1484.44 439.691 1484.58 437.84C1484.71 435.981 1485.52 434.551 1487.04 433.579C1488.87 432.388 1490.96 432.314 1493.3 433.357C1495.64 434.379 1497.79 436.373 1499.71 439.342C1501.82 442.59 1502.7 445.675 1502.35 448.589C1502 451.503 1500.59 453.843 1498.09 455.64L1506.18 468.098C1511.47 464.408 1514.59 459.341 1515.57 452.884C1516.53 446.419 1514.77 439.714 1510.24 432.754L1510.23 432.734Z" fill="white"/>
<path d="M1579.86 568.013C1575.91 558.028 1569.62 550.981 1561.01 546.847C1552.38 542.736 1543.2 542.611 1533.41 546.459C1523.61 550.33 1516.96 556.705 1513.5 565.582C1510.01 574.482 1510.22 583.916 1514.17 593.911C1517.6 602.598 1522.75 609.13 1529.59 613.461C1536.45 617.79 1543.92 619.11 1552.01 617.394L1546.08 602.334C1541.76 602.843 1537.88 601.918 1534.43 599.559C1531.01 597.177 1528.37 593.682 1526.53 589.052C1524.11 582.87 1524.04 577.307 1526.36 572.43C1528.67 567.522 1532.97 563.842 1539.26 561.369C1545.54 558.887 1551.21 558.635 1556.25 560.627C1561.29 562.639 1565.04 566.715 1567.48 572.894C1569.3 577.537 1569.76 581.903 1568.86 585.973C1567.98 590.04 1565.77 593.363 1562.26 595.939L1568.2 611.029C1575.3 606.744 1579.86 600.685 1581.92 592.836C1583.96 584.99 1583.27 576.722 1579.85 568.034L1579.86 568.013Z" fill="white"/>
<path d="M1606.06 647.305C1603.14 636.54 1597.52 628.555 1589.17 623.351C1580.83 618.127 1571.73 616.853 1561.88 619.531C1552.03 622.177 1544.8 627.868 1540.22 636.57C1535.63 645.282 1534.81 654.995 1537.73 665.76C1540.63 676.527 1546.24 684.514 1554.59 689.717C1562.94 694.911 1572.03 696.185 1581.89 693.537C1591.75 690.858 1598.96 685.179 1603.54 676.498C1608.13 667.786 1608.95 658.054 1606.05 647.307L1606.06 647.305ZM1591.57 667.89C1588.73 672.972 1584.13 676.357 1577.72 678.079C1571.32 679.83 1565.62 679.208 1560.61 676.255C1555.63 673.299 1552.28 668.642 1550.56 662.284C1548.84 655.946 1549.39 650.227 1552.23 645.174C1555.05 640.094 1559.67 636.707 1566.05 634.958C1572.48 633.233 1578.16 633.848 1583.16 636.801C1588.15 639.757 1591.5 644.414 1593.21 650.753C1594.93 657.111 1594.39 662.809 1591.56 667.88L1591.57 667.89Z" fill="white"/>
<path d="M1619.32 713.202L1616.78 698.249L1549.82 709.645L1557.88 756.865L1570.51 754.703L1565.01 722.463L1619.31 713.203L1619.32 713.202Z" fill="white"/>
<path d="M1558.57 761.022L1560.69 787.421C1561.66 799.653 1565.53 808.901 1572.32 815.213C1579.1 821.505 1587.54 824.26 1597.64 823.436C1607.75 822.631 1615.64 818.561 1621.32 811.267C1627.01 803.98 1629.34 794.205 1628.37 781.992L1626.25 755.574L1558.56 761.013L1558.57 761.022ZM1615.58 782.602C1616.2 790.414 1614.81 796.358 1611.39 800.503C1607.98 804.619 1602.97 806.966 1596.37 807.491C1589.76 808.02 1584.43 806.527 1580.41 802.989C1576.38 799.453 1574.07 793.781 1573.44 785.99L1572.57 775.125L1614.71 771.737L1615.58 782.602Z" fill="white"/>
<path d="M1626.65 865.632C1622.85 860.595 1618.01 857.924 1612.09 857.643C1608.52 857.465 1605.41 858.027 1602.77 859.359C1600.11 860.692 1598.05 862.475 1596.54 864.725C1595.07 866.991 1593.88 869.494 1593.03 872.298C1592.16 875.075 1591.3 877.85 1590.45 880.563C1589.61 883.296 1588.84 885.798 1588.11 888.123C1587.41 890.426 1586.44 892.268 1585.22 893.646C1583.99 895.045 1582.49 895.713 1580.71 895.619C1578.24 895.489 1576.36 894.247 1575.11 891.902C1573.85 889.558 1573.33 886.338 1573.53 882.262C1573.75 877.773 1574.91 874.336 1576.98 872.027C1579.09 869.714 1581.63 868.526 1584.65 868.459L1585.38 853.519C1582.44 853.506 1579.63 853.981 1576.98 854.92C1574.3 855.863 1571.81 857.347 1569.47 859.386C1567.13 861.426 1565.23 864.268 1563.73 867.928C1562.25 871.614 1561.38 875.903 1561.12 880.8C1560.7 889.526 1562.28 896.647 1565.87 902.212C1569.46 907.746 1574.31 910.678 1580.42 910.988C1584.12 911.17 1587.35 910.622 1590.08 909.301C1592.81 907.999 1594.94 906.207 1596.46 903.966C1597.98 901.695 1599.16 899.143 1600.06 896.302C1600.94 893.474 1601.79 890.659 1602.66 887.902C1603.53 885.126 1604.31 882.573 1605.04 880.278C1605.74 877.955 1606.69 876.086 1607.89 874.649C1609.08 873.234 1610.57 872.568 1612.38 872.658C1614.56 872.764 1616.31 873.93 1617.59 876.141C1618.88 878.35 1619.44 881.214 1619.27 884.74C1619.07 888.623 1617.97 891.649 1616 893.795C1614.01 895.943 1611.47 897.02 1608.42 897L1607.68 911.85C1614.13 911.957 1619.64 909.68 1624.21 905.01C1628.77 900.351 1631.26 893.87 1631.69 885.567C1632.08 877.348 1630.41 870.702 1626.64 865.663L1626.65 865.632Z" fill="white"/>
<path d="M1573.27 938.602C1576.51 936.393 1580.58 935.652 1585.5 936.379L1625.42 942.269L1627.64 927.279L1588.09 921.433C1578.68 920.047 1571.07 921.917 1565.2 927.088C1559.35 932.227 1555.78 939.234 1554.47 948.068C1553.17 956.902 1554.55 964.642 1558.67 971.269C1562.79 977.888 1569.55 981.896 1578.93 983.285L1618.5 989.129L1620.71 974.138L1580.77 968.231C1575.86 967.492 1572.16 965.607 1569.72 962.552C1567.28 959.475 1566.44 955.287 1567.22 949.932C1568.02 944.595 1570.03 940.823 1573.26 938.594L1573.27 938.602Z" fill="white"/>
<path d="M1549.01 989.419L1545.34 1004.12L1570.28 1010.38L1566.32 1026.31C1564.32 1034.28 1564.69 1040.83 1567.43 1045.91C1570.18 1050.98 1574.57 1054.27 1580.64 1055.79C1586.76 1057.31 1592.21 1056.53 1597 1053.45C1601.77 1050.37 1605.2 1044.72 1607.23 1036.51L1614.9 1005.87L1549.02 989.408L1549.01 989.419ZM1594.81 1033.42C1593.99 1036.65 1592.67 1038.87 1590.81 1040.12C1588.95 1041.38 1586.77 1041.7 1584.31 1041.07C1581.83 1040.46 1580.09 1039.16 1579.06 1037.18C1578.05 1035.22 1577.94 1032.63 1578.74 1029.4L1582.72 1013.47L1598.76 1017.48L1594.8 1033.41L1594.81 1033.42Z" fill="white"/>
<path d="M1533.32 1049.47L1517.89 1094.81L1530.02 1098.93L1540.55 1067.96L1592.73 1085.68L1597.61 1071.33L1533.32 1049.46L1533.32 1049.47Z" fill="white"/>
<path d="M1516.26 1098.8L1495.09 1147.48L1506.84 1152.59L1521.97 1117.82L1535.92 1123.89L1521.4 1157.23L1533.16 1162.36L1547.67 1129L1560.74 1134.69L1545.61 1169.46L1557.36 1174.57L1578.53 1125.89L1516.25 1098.8L1516.26 1098.8Z" fill="white"/>
<path d="M1551.03 1188.15L1491.89 1154.81L1484.75 1167.47L1525.07 1190.22L1493.46 1196.24L1493.24 1196.62L1504.47 1226.77L1464.13 1204.03L1457.01 1216.71L1516.15 1250.05L1522.99 1237.93L1510.69 1206.19L1544.2 1200.29L1551.03 1188.15Z" fill="white"/>
<path d="M1450.86 1225.41L1420.18 1268.74L1430.64 1276.14L1452.56 1245.2L1464.96 1253.98L1443.95 1283.66L1454.43 1291.07L1475.44 1261.39L1487.06 1269.63L1465.16 1300.58L1475.62 1307.97L1506.27 1264.67L1450.85 1225.41L1450.86 1225.41Z" fill="white"/>
<path d="M1466.71 1319.59L1415.3 1275.21L1405.68 1286.38L1439.63 1315.71L1384.64 1310.77L1374.64 1322.31L1426.04 1366.69L1435.69 1355.52L1401.6 1326.1L1456.8 1331.05L1466.7 1319.59L1466.71 1319.59Z" fill="white"/>
<path d="M1410.22 1364.18L1395.65 1378.28L1357.56 1338.88L1346.65 1349.41L1384.76 1388.81L1370.2 1402.9L1379.3 1412.33L1419.32 1373.61L1410.22 1364.19L1410.22 1364.18Z" fill="white"/>
<path d="M1356.24 1388.05C1349.84 1380.12 1341.73 1375.79 1331.92 1375.08C1322.12 1374.4 1312.88 1377.54 1304.2 1384.54C1295.52 1391.52 1290.46 1399.89 1289.08 1409.64C1287.66 1419.36 1290.14 1428.2 1296.55 1436.14C1302.96 1444.09 1311.06 1448.4 1320.87 1449.11C1330.68 1449.82 1339.94 1446.67 1348.6 1439.67C1357.29 1432.67 1362.33 1424.3 1363.75 1414.58C1365.15 1404.84 1362.66 1396.01 1356.25 1388.06L1356.24 1388.05ZM1348.99 1414.48C1348.29 1420.24 1345.38 1425.2 1340.25 1429.3C1335.12 1433.43 1329.67 1435.22 1323.91 1434.68C1318.13 1434.14 1313.16 1431.29 1309 1426.13C1304.84 1420.96 1303.12 1415.48 1303.82 1409.72C1304.49 1403.97 1307.41 1399.04 1312.54 1394.9C1317.67 1390.77 1323.12 1388.98 1328.88 1389.53C1334.66 1390.09 1339.63 1392.95 1343.79 1398.11C1347.95 1403.27 1349.7 1408.73 1348.99 1414.49L1348.99 1414.48Z" fill="white"/>
<path d="M1296.5 1453.25C1294.55 1450.24 1292.27 1448.07 1289.65 1446.68C1287.01 1445.32 1284.37 1444.68 1281.67 1444.79C1278.96 1444.9 1276.24 1445.43 1273.47 1446.37C1270.69 1447.3 1267.95 1448.22 1265.24 1449.13C1262.55 1450.03 1260.05 1450.88 1257.77 1451.64C1255.48 1452.41 1253.41 1452.7 1251.57 1452.53C1249.74 1452.37 1248.32 1451.53 1247.35 1450.03C1245.99 1447.94 1245.9 1445.69 1247.07 1443.31C1248.25 1440.91 1250.54 1438.6 1253.98 1436.38C1257.75 1433.93 1261.19 1432.87 1264.3 1433.21C1267.4 1433.56 1269.85 1434.92 1271.65 1437.33L1284.22 1429.17C1282.5 1426.79 1280.49 1424.79 1278.16 1423.19C1275.84 1421.57 1273.16 1420.41 1270.16 1419.73C1267.14 1419 1263.69 1419.14 1259.85 1420.08C1256.03 1421.03 1252.02 1422.83 1247.9 1425.5C1240.57 1430.26 1235.72 1435.71 1233.32 1441.87C1230.92 1448.01 1231.39 1453.68 1234.72 1458.81C1236.74 1461.92 1239.08 1464.19 1241.74 1465.66C1244.41 1467.1 1247.1 1467.78 1249.8 1467.69C1252.53 1467.58 1255.31 1467.06 1258.11 1466.13C1260.92 1465.17 1263.72 1464.23 1266.47 1463.31C1269.21 1462.38 1271.73 1461.55 1274.02 1460.77C1276.32 1460 1278.4 1459.68 1280.25 1459.8C1282.11 1459.93 1283.52 1460.76 1284.51 1462.28C1285.7 1464.11 1285.76 1466.18 1284.74 1468.54C1283.68 1470.89 1281.7 1473.01 1278.73 1474.93C1275.48 1477.04 1272.39 1477.92 1269.48 1477.57C1266.57 1477.22 1264.22 1475.79 1262.43 1473.31L1249.97 1481.38C1253.66 1486.67 1258.73 1489.81 1265.19 1490.8C1271.63 1491.77 1278.36 1490 1285.32 1485.47C1292.23 1480.98 1296.63 1475.74 1298.5 1469.73C1300.4 1463.73 1299.72 1458.23 1296.49 1453.26L1296.5 1453.25Z" fill="white"/>
<path d="M1171.59 1508.56C1167.74 1498.76 1161.37 1492.12 1152.47 1488.63C1143.59 1485.14 1134.15 1485.35 1124.17 1489.3C1115.45 1492.73 1108.95 1497.86 1104.62 1504.7C1100.27 1511.56 1098.97 1519.03 1100.66 1527.12L1115.72 1521.19C1115.21 1516.87 1116.16 1512.98 1118.53 1509.56C1120.89 1506.12 1124.41 1503.5 1129.04 1501.66C1135.22 1499.24 1140.75 1499.17 1145.66 1501.48C1150.55 1503.82 1154.25 1508.12 1156.72 1514.4C1159.17 1520.69 1159.44 1526.36 1157.42 1531.4C1155.43 1536.42 1151.33 1540.17 1145.16 1542.61C1140.51 1544.43 1136.15 1544.89 1132.08 1543.99C1128.01 1543.09 1124.68 1540.89 1122.11 1537.37L1107.02 1543.31C1111.3 1550.41 1117.36 1554.97 1125.21 1557.03C1133.04 1559.09 1141.32 1558.38 1150.02 1554.98C1160 1551.04 1167.05 1544.76 1171.18 1536.16C1175.32 1527.55 1175.44 1518.34 1171.59 1508.55L1171.59 1508.56Z" fill="white"/>
<path d="M1098.56 1536.96C1095.89 1527.12 1090.21 1519.89 1081.52 1515.3C1072.83 1510.72 1063.1 1509.87 1052.33 1512.76C1041.58 1515.68 1033.58 1521.31 1028.37 1529.63C1023.15 1537.98 1021.88 1547.07 1024.55 1556.93C1027.21 1566.77 1032.89 1574 1041.57 1578.58C1050.26 1583.17 1060 1584.01 1070.77 1581.12C1081.53 1578.2 1089.52 1572.58 1094.72 1564.25C1099.95 1555.9 1101.21 1546.81 1098.56 1536.95L1098.56 1536.96ZM1081.26 1558.22C1078.3 1563.21 1073.66 1566.58 1067.29 1568.28C1060.95 1569.99 1055.23 1569.45 1050.18 1566.6C1045.1 1563.79 1041.71 1559.17 1039.99 1552.76C1038.27 1546.35 1038.88 1540.65 1041.84 1535.67C1044.79 1530.68 1049.44 1527.31 1055.81 1525.62C1062.15 1523.9 1067.86 1524.44 1072.92 1527.29C1078 1530.1 1081.38 1534.72 1083.11 1541.13C1084.83 1547.53 1084.22 1553.24 1081.26 1558.22Z" fill="white"/>
<path d="M1008.37 1524.88L961.16 1532.9L963.302 1545.53L995.574 1540.05L1004.79 1594.37L1019.74 1591.83L1008.36 1524.87L1008.37 1524.88Z" fill="white"/>
<path d="M930.64 1535.67C918.428 1536.64 909.18 1540.51 902.866 1547.28C896.553 1554.06 893.818 1562.49 894.623 1572.6C895.428 1582.71 899.477 1590.6 906.764 1596.3C914.078 1601.97 923.83 1604.35 936.04 1603.36L962.441 1601.27L957.061 1533.57L930.64 1535.67ZM946.303 1589.68L935.438 1590.55C927.656 1591.17 921.683 1589.79 917.556 1586.36C913.411 1582.95 911.094 1577.94 910.566 1571.32C910.04 1564.73 911.533 1559.4 915.071 1555.38C918.608 1551.36 924.278 1549.04 932.069 1548.41L942.954 1547.54L946.303 1589.68Z" fill="white"/>
<path d="M864.57 1560.34C864.584 1557.41 864.108 1554.6 863.167 1551.93C862.226 1549.27 860.743 1546.78 858.703 1544.44C856.683 1542.1 853.818 1540.17 850.161 1538.69C846.492 1537.2 842.203 1536.31 837.289 1536.09C828.561 1535.65 821.44 1537.22 815.873 1540.8C810.338 1544.39 807.406 1549.24 807.096 1555.34C806.917 1559.06 807.462 1562.28 808.764 1565.01C810.085 1567.74 811.858 1569.87 814.119 1571.39C816.39 1572.9 818.944 1574.1 821.763 1574.99C824.611 1575.87 827.409 1576.75 830.184 1577.61C832.961 1578.48 835.494 1579.26 837.809 1579.98C840.112 1580.69 841.971 1581.64 843.418 1582.84C844.833 1584.03 845.499 1585.52 845.419 1587.33C845.313 1589.51 844.147 1591.25 841.936 1592.53C839.727 1593.83 836.843 1594.39 833.315 1594.2C829.464 1594.02 826.438 1592.92 824.289 1590.93C822.141 1588.93 821.067 1586.41 821.085 1583.35L806.254 1582.61C806.128 1589.06 808.394 1594.57 813.075 1599.14C817.736 1603.72 824.217 1606.21 832.498 1606.61C840.739 1607.03 847.366 1605.37 852.404 1601.59C857.463 1597.81 860.132 1592.95 860.416 1587.05C860.593 1583.48 860.032 1580.37 858.697 1577.71C857.387 1575.06 855.6 1572.98 853.345 1571.51C851.106 1570.01 848.576 1568.85 845.788 1567.97C842.992 1567.11 840.237 1566.24 837.503 1565.39C834.79 1564.54 832.268 1563.78 829.963 1563.05C827.66 1562.34 825.818 1561.37 824.42 1560.16C823.04 1558.93 822.373 1557.43 822.467 1555.65C822.595 1553.15 823.838 1551.3 826.183 1550.04C828.526 1548.77 831.746 1548.24 835.821 1548.45C840.313 1548.69 843.75 1549.85 846.063 1551.95C848.373 1554.03 849.561 1556.58 849.628 1559.59L864.571 1560.35L864.57 1560.34Z" fill="white"/>
<path d="M790.955 1540.11C785.812 1534.23 778.807 1530.67 769.97 1529.34C761.136 1528.04 753.397 1529.43 746.789 1533.54C740.147 1537.64 736.139 1544.4 734.733 1553.81L728.867 1593.36L743.877 1595.57L749.807 1555.64C750.517 1550.74 752.431 1547.04 755.488 1544.61C758.542 1542.15 762.754 1541.33 768.08 1542.13C773.437 1542.92 777.208 1544.93 779.418 1548.16C781.628 1551.4 782.368 1555.47 781.639 1560.38L775.709 1600.3L790.722 1602.53L796.588 1562.99C797.996 1553.6 796.124 1545.96 790.965 1540.11L790.955 1540.11Z" fill="white"/>
<path d="M713.9 1520.18L707.646 1545.13L691.743 1541.14C683.741 1539.14 677.217 1539.5 672.123 1542.25C667.047 1544.98 663.759 1549.39 662.243 1555.44C660.716 1561.56 661.494 1567.01 664.579 1571.8C667.665 1576.59 673.291 1580 681.492 1582.06L712.113 1589.74L728.636 1523.86L713.911 1520.19L713.9 1520.18ZM700.516 1573.62L684.611 1569.61C681.382 1568.83 679.142 1567.48 677.906 1565.61C676.653 1563.77 676.347 1561.6 676.962 1559.14C677.575 1556.66 678.87 1554.9 680.853 1553.89C682.812 1552.86 685.4 1552.77 688.632 1553.57L704.564 1557.55L700.528 1573.62L700.516 1573.62Z" fill="white"/>
<path d="M623.254 1492.68L619.129 1504.81L650.101 1515.36L632.31 1567.52L646.663 1572.42L668.569 1508.13L623.244 1492.68L623.254 1492.68Z" fill="white"/>
<path d="M570.606 1469.84L565.477 1481.59L600.246 1496.74L594.155 1510.67L560.843 1496.15L555.713 1507.9L589.055 1522.42L583.362 1535.49L548.613 1520.34L543.483 1532.09L592.142 1553.29L619.274 1491.03L570.615 1469.83L570.606 1469.84Z" fill="white"/>
<path d="M550.61 1459.48L527.863 1499.81L521.843 1468.17L521.486 1467.98L491.292 1479.16L514.06 1438.85L501.398 1431.71L468.009 1490.84L480.13 1497.67L511.872 1485.39L517.753 1518.93L529.874 1525.77L563.261 1466.62L550.598 1459.47L550.61 1459.48Z" fill="white"/>
<path d="M449.403 1394.87L441.99 1405.33L472.924 1427.25L464.127 1439.65L434.46 1418.62L427.047 1429.08L456.713 1450.11L448.476 1461.74L417.541 1439.81L410.128 1450.27L453.442 1480.98L492.715 1425.55L449.403 1394.87Z" fill="white"/>
<path d="M431.767 1380.34L402.434 1414.27L407.416 1359.28L395.858 1349.31L351.444 1400.68L362.589 1410.33L392.055 1376.25L387.06 1431.46L398.499 1441.36L442.933 1389.99L431.767 1380.34Z" fill="white"/>
<path d="M379.349 1332.23L368.814 1321.32L329.391 1359.39L315.315 1344.83L305.892 1353.93L344.568 1393.99L353.992 1384.88L339.916 1370.32L379.34 1332.24L379.349 1332.23Z" fill="white"/>
<path d="M333.674 1278.8C326.675 1270.1 318.33 1265.06 308.603 1263.62C298.861 1262.23 290.038 1264.72 282.075 1271.1C274.125 1277.51 269.788 1285.61 269.086 1295.42C268.38 1305.21 271.529 1314.47 278.527 1323.15C285.506 1331.85 293.87 1336.89 303.595 1338.3C313.339 1339.72 322.173 1337.24 330.122 1330.82C338.075 1324.44 342.382 1316.34 343.095 1306.53C343.797 1296.72 340.649 1287.46 333.674 1278.8ZM328.677 1303.48C328.113 1309.24 325.257 1314.21 320.094 1318.37C314.931 1322.53 309.45 1324.25 303.692 1323.55C297.935 1322.86 293.006 1319.96 288.87 1314.81C284.756 1309.68 282.969 1304.23 283.513 1298.47C284.075 1292.69 286.931 1287.72 292.094 1283.56C297.259 1279.42 302.718 1277.68 308.476 1278.38C314.233 1279.07 319.194 1281.99 323.298 1287.12C327.432 1292.24 329.218 1297.7 328.677 1303.48Z" fill="white"/>
<path d="M298.167 1234.43C297.233 1230.59 295.435 1226.6 292.762 1222.46C288.006 1215.14 282.555 1210.28 276.408 1207.88C270.238 1205.46 264.604 1205.93 259.449 1209.25C256.342 1211.28 254.069 1213.61 252.601 1216.27C251.156 1218.94 250.478 1221.64 250.567 1224.34C250.659 1227.06 251.168 1229.82 252.128 1232.64C253.067 1235.45 253.994 1238.25 254.926 1241.01C255.858 1243.77 256.688 1246.26 257.476 1248.59C258.241 1250.88 258.554 1252.95 258.438 1254.79C258.293 1256.66 257.479 1258.07 255.958 1259.06C254.126 1260.22 252.04 1260.3 249.699 1259.28C247.353 1258.23 245.225 1256.23 243.311 1253.27C241.198 1250.01 240.319 1246.94 240.667 1244.03C241.035 1241.11 242.449 1238.75 244.951 1236.97L236.857 1224.51C231.564 1228.18 228.446 1233.25 227.463 1239.7C226.48 1246.15 228.24 1252.87 232.75 1259.84C237.234 1266.75 242.478 1271.15 248.492 1273.04C254.507 1274.93 259.986 1274.26 264.959 1271.02C267.964 1269.07 270.153 1266.79 271.525 1264.17C272.917 1261.55 273.528 1258.89 273.422 1256.21C273.312 1253.51 272.795 1250.77 271.873 1248.01C270.938 1245.23 270.036 1242.47 269.113 1239.79C268.206 1237.08 267.378 1234.59 266.613 1232.29C265.829 1230 265.539 1227.96 265.723 1226.1C265.891 1224.26 266.725 1222.84 268.228 1221.87C270.319 1220.52 272.547 1220.44 274.948 1221.62C277.348 1222.8 279.642 1225.08 281.875 1228.5C284.314 1232.29 285.371 1235.74 285.026 1238.84C284.681 1241.95 283.318 1244.39 280.91 1246.2L289.038 1258.76C291.437 1257.05 293.446 1255.03 295.046 1252.71C296.665 1250.38 297.811 1247.73 298.509 1244.71C299.237 1241.69 299.099 1238.26 298.165 1234.41L298.167 1234.43Z" fill="white"/>
<path d="M229.019 1098.66C225.607 1089.97 220.475 1083.44 213.637 1079.11C206.798 1074.76 199.322 1073.44 191.208 1075.14L197.127 1090.23C201.467 1089.72 205.348 1090.64 208.774 1093.03C212.197 1095.39 214.832 1098.9 216.65 1103.54C219.09 1109.72 219.137 1115.29 216.803 1120.17C214.49 1125.06 210.188 1128.76 203.899 1131.21C197.585 1133.7 191.94 1133.92 186.898 1131.91C181.859 1129.92 178.133 1125.82 175.694 1119.64C173.876 1115 173.412 1110.63 174.313 1106.56C175.215 1102.49 177.418 1099.17 180.931 1096.59L175.012 1081.5C167.91 1085.79 163.353 1091.85 161.29 1099.68C159.228 1107.52 159.909 1115.79 163.323 1124.5C167.236 1134.49 173.51 1141.54 182.126 1145.67C190.743 1149.81 199.948 1149.95 209.733 1146.1C219.537 1142.25 226.182 1135.87 229.668 1126.99C233.184 1118.11 232.963 1108.66 229.019 1098.66Z" fill="white"/>
<path d="M205.592 1026.83C202.691 1016.06 197.099 1008.07 188.752 1002.85C180.424 997.622 171.332 996.348 161.472 999.006C151.611 1001.65 144.395 1007.31 139.788 1016.01C135.203 1024.72 134.358 1034.44 137.249 1045.2C140.149 1055.97 145.742 1063.96 154.089 1069.18C162.416 1074.41 171.509 1075.68 181.369 1073.03C191.23 1070.38 198.445 1064.72 203.05 1056C207.637 1047.31 208.482 1037.6 205.592 1026.83ZM191.075 1047.4C188.261 1052.48 183.639 1055.86 177.228 1057.57C170.82 1059.29 165.123 1058.67 160.137 1055.72C155.151 1052.76 151.8 1048.11 150.084 1041.75C148.39 1035.41 148.939 1029.69 151.776 1024.64C154.589 1019.56 159.212 1016.17 165.62 1014.45C172.028 1012.72 177.727 1013.36 182.714 1016.31C187.7 1019.27 191.051 1023.93 192.767 1030.28C194.46 1036.62 193.911 1042.34 191.075 1047.4Z" fill="white"/>
<path d="M185.554 935.699L172.921 937.84L178.362 970.088L124.056 979.278L126.563 994.235L193.532 982.899L185.563 935.688L185.554 935.699Z" fill="white"/>
<path d="M171.183 877.343C164.405 871.03 155.988 868.273 145.881 869.078C135.773 869.883 127.855 873.915 122.178 881.199C116.482 888.486 114.104 898.268 115.075 910.48L117.171 936.881L184.874 931.541L182.776 905.12C181.824 892.905 177.958 883.636 171.183 877.343ZM170.025 906.551L170.893 917.416L128.747 920.764L127.877 909.879C127.276 902.095 128.671 896.121 132.084 891.995C135.499 887.88 140.514 885.553 147.128 885.025C153.743 884.496 159.058 886.022 163.077 889.549C167.107 893.086 169.411 898.737 170.025 906.551Z" fill="white"/>
<path d="M177.747 790.36C174.157 784.825 169.301 781.863 163.2 781.563C159.5 781.381 156.282 781.927 153.533 783.251C150.801 784.553 148.671 786.325 147.154 788.586C145.639 790.857 144.437 793.382 143.557 796.23C142.677 799.078 141.8 801.875 140.929 804.632C140.06 807.408 139.285 809.961 138.558 812.256C137.836 814.582 136.886 816.451 135.699 817.866C134.495 819.303 133.005 819.969 131.188 819.859C129.029 819.751 127.284 818.584 125.986 816.375C124.707 814.164 124.155 811.3 124.318 807.774C124.517 803.891 125.617 800.865 127.611 798.717C129.605 796.569 132.125 795.514 135.188 795.512L135.96 780.678C129.509 780.572 124.005 782.848 119.426 787.499C114.846 792.13 112.335 798.613 111.932 806.924C111.489 815.149 113.179 821.793 116.96 826.83C120.713 831.892 125.573 834.56 131.474 834.865C135.042 835.043 138.145 834.461 140.815 833.147C143.453 831.816 145.531 830.031 147.009 827.784C148.508 825.545 149.688 823.013 150.546 820.228C151.433 817.43 152.274 814.677 153.118 811.944C153.965 809.231 154.754 806.706 155.479 804.401C156.184 802.098 157.157 800.256 158.369 798.879C159.598 797.479 161.098 796.812 162.885 796.925C165.376 797.033 167.231 798.277 168.488 800.642C169.762 802.984 170.268 806.207 170.062 810.282C169.826 814.774 168.662 818.181 166.578 820.501C164.478 822.844 161.93 824.002 158.915 824.069L158.156 839.012C161.09 839.026 163.903 838.55 166.568 837.609C169.234 836.668 171.724 835.205 174.064 833.165C176.403 831.125 178.331 828.28 179.828 824.621C181.303 820.954 182.178 816.666 182.432 811.749C182.874 803.02 181.297 795.899 177.723 790.332L177.747 790.36Z" fill="white"/>
<path d="M185.031 721.262C180.933 714.621 174.176 710.613 164.785 709.204L125.256 703.316L122.992 718.312L162.922 724.262C167.828 725.001 171.527 726.906 173.957 729.963C176.416 733.017 177.234 737.228 176.436 742.555C175.651 747.91 173.615 751.686 170.399 753.893C167.164 756.103 163.074 756.845 158.169 756.116L118.24 750.166L116.006 765.159L155.557 771.065C164.945 772.454 172.584 770.581 178.433 765.442C184.311 760.299 187.899 753.311 189.204 744.477C190.53 735.64 189.149 727.901 185.022 721.273L185.031 721.262Z" fill="white"/>
<path d="M173.468 682.137L177.474 666.232C179.476 658.23 179.108 651.686 176.381 646.61C173.633 641.536 169.241 638.246 163.189 636.71C157.068 635.183 151.62 635.941 146.828 639.016C142.038 642.102 138.609 647.75 136.548 655.931L128.864 686.553L194.738 703.127L198.437 688.418L173.469 682.147L173.468 682.137ZM165.05 663.09L161.048 679.024L145.008 674.984L149.01 659.05C149.825 655.837 151.143 653.6 153.007 652.364C154.868 651.109 157.016 650.795 159.51 651.416C161.973 652.032 163.734 653.327 164.742 655.309C165.77 657.289 165.875 659.875 165.06 663.088L165.05 663.09Z" fill="white"/>
<path d="M150.772 607.876L146.223 621.157L175.179 631.04L150.772 607.876Z" fill="white"/>
<path d="M225.973 597.788L210.495 643.086L175.178 631.03L150.772 607.876L151.143 606.793L203.286 624.616L213.859 593.64L225.973 597.788Z" fill="#ADEA28"/>
<path d="M279.376 471.661L227.916 442.551L221.078 454.672L229.967 477.723L243.366 476.081L239.575 465.856L255.109 474.643L279.885 488.645L287.028 475.982L279.376 471.661Z" fill="white"/>
<path d="M259.24 525.155L252.066 537.821L192.953 504.39L199.804 492.297L233.328 486.418L229.965 477.713L243.365 476.071L250.767 496.039L250.539 496.4L218.93 502.367L259.24 525.155Z" fill="#ADEA28"/>
<path d="M313.461 416.568L291.517 447.485L279.116 438.688L300.167 409.039L289.709 401.625L268.657 431.274L257.047 423.015L278.991 392.098L268.532 384.684L237.808 427.98L293.186 467.279L323.913 424.003L313.451 416.57L313.461 416.568Z" fill="white"/>
<path d="M369.503 370.483L318.158 326.026L308.514 337.191L342.569 366.659L287.356 361.614L277.453 373.053L328.799 417.511L338.445 406.365L304.515 377.012L359.511 382.014L369.512 370.472L369.503 370.483Z" fill="white"/>
<path d="M359.458 304.011L374.025 289.936L364.922 280.513L324.865 319.169L333.948 328.595L348.548 314.546L386.584 353.974L397.516 343.457L359.458 304.011Z" fill="white"/>
<path d="M447.778 256.754C441.374 248.803 433.287 244.464 423.476 243.742C413.668 243.039 404.412 246.187 395.716 253.166C387.02 260.145 381.977 268.49 380.561 278.235C379.123 287.962 381.608 296.815 388.012 304.766C394.396 312.719 402.484 317.058 412.292 317.76C422.1 318.463 431.356 315.315 440.052 308.336C448.748 301.357 453.791 293.012 455.227 283.265C456.645 273.54 454.16 264.687 447.778 256.754ZM440.475 283.167C439.78 288.925 436.858 293.856 431.73 297.97C426.605 302.104 421.151 303.89 415.37 303.329C409.591 302.788 404.635 299.909 400.476 294.746C396.318 289.583 394.599 284.102 395.294 278.344C396.009 272.585 398.911 267.655 404.059 263.539C409.184 259.405 414.638 257.619 420.399 258.183C426.18 258.744 431.154 261.601 435.293 266.766C439.454 271.948 441.171 277.41 440.475 283.167Z" fill="white"/>
<path d="M509.622 234.178C507.617 231.048 505.283 228.775 502.627 227.327C499.949 225.862 497.267 225.183 494.558 225.273C491.829 225.365 489.07 225.875 486.256 226.834C483.439 227.773 480.641 228.7 477.884 229.632C475.124 230.545 472.599 231.398 470.305 232.163C468.011 232.927 465.944 233.241 464.096 233.125C462.235 232.98 460.825 232.165 459.833 230.644C458.642 228.816 458.587 226.727 459.64 224.381C460.663 222.04 462.689 219.908 465.648 217.994C468.896 215.883 471.981 215.001 474.898 215.37C477.812 215.718 480.154 217.154 481.929 219.637L494.412 211.579C490.739 206.266 485.672 203.149 479.221 202.136C472.754 201.155 466.048 202.913 459.065 207.426C452.148 211.91 447.753 217.153 445.858 223.148C443.965 229.163 444.639 234.661 447.877 239.635C449.797 242.644 452.078 244.812 454.706 246.203C457.355 247.591 459.989 248.206 462.696 248.096C465.375 248.009 468.12 247.472 470.898 246.547C473.675 245.613 476.416 244.713 479.126 243.807C481.816 242.903 484.321 242.052 486.616 241.287C488.89 240.525 490.949 240.233 492.796 240.42C494.63 240.588 496.052 241.421 497.022 242.924C498.376 245.015 498.467 247.241 497.3 249.64C496.123 252.041 493.826 254.338 490.392 256.572C486.6 259.011 483.153 260.068 480.048 259.723C476.943 259.377 474.497 257.995 472.691 255.586L460.126 263.714C461.84 266.114 463.859 268.123 466.181 269.723C468.505 271.342 471.166 272.507 474.184 273.205C477.182 273.916 480.633 273.796 484.478 272.861C488.321 271.907 492.314 270.128 496.43 267.458C503.756 262.702 508.632 257.269 511.03 251.102C513.451 244.962 512.999 239.295 509.66 234.163L509.622 234.178Z" fill="white"/>
<path fill-rule="evenodd" clip-rule="evenodd" d="M1487.2 546.83L1491.72 526.047C1494.5 514 1502.75 509.554 1506.4 507.364C1513.38 503.647 1520.46 500.11 1527.49 496.478L1525.37 506.229L1552.25 492.388L1548.95 507.582L1522.35 521.288L1524.47 511.538C1517.44 515.159 1510.37 518.705 1503.38 522.423C1499.72 524.613 1491.47 529.059 1488.7 541.106L1487.49 546.684L1487.21 546.829L1487.2 546.83Z" fill="#ADEA28"/>
<path fill-rule="evenodd" clip-rule="evenodd" d="M1177.84 1454.57L1198.06 1461.13C1209.77 1465.1 1213.37 1473.75 1215.19 1477.6C1218.19 1484.92 1221 1492.32 1223.91 1499.68L1214.43 1496.6L1225.52 1524.72L1210.72 1519.92L1199.74 1492.09L1209.22 1495.17C1206.32 1487.82 1203.5 1480.42 1200.5 1473.09C1198.68 1469.24 1195.09 1460.59 1183.38 1456.63L1177.94 1454.86L1177.83 1454.57L1177.84 1454.57Z" fill="#ADEA28"/>
<path fill-rule="evenodd" clip-rule="evenodd" d="M259.254 1142.67L255.14 1163.54C252.602 1175.64 244.43 1180.24 240.819 1182.5C233.906 1186.35 226.9 1190.02 219.936 1193.78L221.87 1184L195.267 1198.35L198.275 1183.09L224.613 1168.88L222.678 1178.67C229.632 1174.9 236.648 1171.23 243.562 1167.39C247.173 1165.12 255.335 1160.52 257.883 1148.42L258.989 1142.82L259.264 1142.67L259.254 1142.67Z" fill="#ADEA28"/>
<path fill-rule="evenodd" clip-rule="evenodd" d="M577.051 224.871L555.889 222.778C543.602 221.412 538.238 213.727 535.638 210.348C531.143 203.836 526.816 197.213 522.405 190.651L532.328 191.632L515.48 166.524L530.961 168.053L547.636 192.9L537.713 191.919C542.123 198.482 546.451 205.105 550.946 211.617C553.546 214.996 558.91 222.68 571.197 224.047L576.878 224.61L577.051 224.871Z" fill="#ADEA28"/>
</svg>
