<svg width="384" height="384" viewBox="0 0 384 384" fill="none" xmlns="http://www.w3.org/2000/svg">
<path d="M123.41 11C113.22 12.68 104.73 16.71 96.1699 22.29C88.3499 16.84 80.2199 13.52 71.0599 11C66.4899 11.32 61.4099 10.56 56.9099 11C54.8999 11.2 51.2699 12.22 49.1399 12.77C47.0099 13.32 41.5199 15.89 40.2899 15.9C38.7799 15.9 35.6399 13.53 33.1599 13.18C20.5599 11.43 11.0799 21.36 13.2299 33.81C13.5999 35.98 15.8399 38.86 15.8399 40.34C15.8399 41.6 13.2499 47.07 12.7099 49.18C8.36987 66.34 11.8999 82.09 22.2599 96.19C-7.20011 135.14 24.3299 189.56 73.3299 180.49C94.2799 176.61 105.1 160.45 119.49 146.71C120.06 146.12 120.69 145.91 121.5 146.12C123.88 146.75 135.04 160.51 138.24 162.66C124.92 176 139.29 198.16 157.15 190.73C158.81 190.04 161.91 186.99 162.57 187.11C163.66 187.3 168.98 193.98 170.83 195.16C175.64 198.21 180.36 194.32 179.27 188.85C178.66 185.79 170.18 181.02 170.87 178.37C171.09 177.52 177.8 170.58 179.49 170.88L327.11 318.27C332.72 322.78 339.42 316.23 334.92 310.46L187.39 163.02C186.77 161.78 190.1 158.95 190.95 156.64C197.57 138.66 176.01 125.17 162.67 138.25C160.59 135.57 146.02 122.78 146.02 120.95C156.79 107.43 172.85 97.92 178.61 80.67C188.01 52.57 173.9 23.18 146.01 13.49C143.25 12.53 140.06 12.46 137.55 10.99H123.4L123.41 11ZM133.46 21.82C164.51 24.88 180.34 58.99 164.3 85.47C157.44 96.78 143.75 104.73 136.85 114.6C128.43 126.63 147.94 137.21 154.23 145.37C154.7 145.9 154.51 146.23 154.23 146.77C153.79 147.63 146.44 154.62 145.8 154.5C137.33 148.42 126.78 128.33 114.57 136.87C107.06 142.12 98.8399 153.89 91.2099 160.19C52.5499 192.13 0.939882 146.35 30.1599 104.12C32.1399 101.25 35.1099 100.38 35.0699 96.21C35.0299 92.28 31.2099 90.14 29.1699 87.19C22.4999 77.53 20.1199 65.57 22.5899 54.12C23.5099 49.86 27.8399 42.4 27.9699 39.64C28.2099 34.46 21.1499 33.41 24.4799 27.01C28.8999 18.51 35.4399 28.56 40.2399 27.96C43.2299 27.59 49.6199 23.61 54.0699 22.65C65.6499 20.16 77.3999 22.51 87.1499 29.23C90.4599 31.52 92.2899 35.4 96.8799 35.09C100.42 34.85 101.52 31.99 104.09 30.22C112.98 24.07 122.49 20.74 133.47 21.82H133.46ZM177.38 144.09C180.75 145.1 183.06 151.53 180 154.19L153.79 180.32C147.3 184.41 140.39 176.91 146.39 169.39C150.6 164.12 164.5 150.12 169.76 146.08C172.15 144.25 174.16 143.13 177.38 144.09Z" fill="#C0A07C"/>
<path d="M373.12 356.78V350.42C372.03 348.72 371.25 347.06 369.94 345.46C366.71 341.53 353.89 328.27 350.13 325.67C344.55 321.81 338.41 326.15 341.38 332.3L362.5 353.6C360.16 355.16 355.39 362.68 352.62 361.4L193.81 202.61C188.3 196.96 180.47 203.46 185.35 209.65C199.83 224.78 215.56 239.02 229.46 254.5L220.77 262.68C212.96 255.31 207.09 245.62 195.9 254.94C189.99 259.86 175.66 273.81 171.14 279.69C168.58 283.01 167.98 286.32 168.84 290.51C169.49 293.66 181.15 305.45 184.22 306.25C194.36 308.9 197.91 300.88 204.5 295.32C205.15 295.21 212.49 302.19 212.93 303.05C213.28 303.73 213.28 303.77 212.93 304.45C211.64 306.96 205.39 310.99 203.45 314.12C201 318.07 200.76 322.77 203.33 326.74C204.26 328.18 213.62 337.35 215.13 338.28C225.41 344.65 230.62 333.21 237.65 328.47C238.82 328.47 245.71 335.46 245.82 336.66C246.08 339.33 238.03 344.92 236.27 347.62C233.78 351.43 234.01 356.21 236.58 359.97C237.65 361.52 245.97 369.83 247.55 370.93C251.56 373.74 256.45 373.8 260.61 371.24L288.83 342.88C294.59 332.13 284.15 327.71 279.01 320.36C279.01 319.53 286.87 310.15 288.62 312.89L345.16 369.52C356.31 379.89 367.28 365.53 373.12 356.78ZM237.65 262.04L278.7 303.05C280.17 305.05 271.73 312.25 270.9 312.25L269.45 311.56L228.82 270.86L237.65 262.03V262.04ZM205.02 262.08L279.7 336.73L254.54 362.39C253.63 362.55 245.77 354.7 245.77 353.6C250.52 346.37 260.85 342.58 255.98 332.11C254.61 329.17 244.12 318.69 241.04 318.06C230.84 315.96 227.96 323.64 221.3 329.16C220.39 329.32 212.53 321.47 212.53 320.37C217.39 313.4 228.83 307.78 222.07 297.42C220.49 294.99 210.42 285.37 207.8 284.82C198.05 282.8 194.35 290.56 188.06 295.92C186.84 296.14 180.76 289.03 179.37 287.74L205.04 262.08H205.02Z" fill="#C0A07C"/>
<path d="M132.76 34.54C117.42 32.78 101.25 44.82 100.73 60.85C100.48 68.65 104.64 66.94 109.74 69.57C114.14 71.84 119.31 76.53 121.86 80.79C126.18 87.99 123.06 92.8 134.29 91.54C165.01 88.11 166.8 38.45 132.75 34.54H132.76ZM131.36 45.12C146.68 46.95 153.37 66.41 141.44 76.75C139.9 78.09 135.15 81.3 133.29 79.99C132.91 79.72 129.81 73.38 128.66 71.88C126.14 68.61 121.4 64.38 117.98 62.05C113.29 58.84 109.34 60.25 114.61 52.78C118.21 47.68 125.1 44.39 131.35 45.13L131.36 45.12Z" fill="#C0A07C"/>
<path d="M64.19 100.96C54.13 98.58 40.97 108.4 36.97 117.29C25.64 142.47 52.11 167.51 76.64 154.82C85.39 150.3 93.15 138.94 91.53 128.78C90.84 124.45 86.34 124.84 83.06 123.11C77.77 120.31 72.55 115.57 69.77 110.23C68.26 107.34 67.93 101.84 64.19 100.96ZM58.57 112.18C62.02 117.69 64.97 122.68 69.98 126.99C71.82 128.58 80.01 133.2 80.2 133.78C81.71 138.16 73.04 145.33 69.09 146.57C45.44 153.99 34.69 118.86 58.57 112.18Z" fill="#C0A07C"/>
<path d="M66.2699 34.54C28.1499 30.41 23.8499 87.52 58.0499 91.53C69.0499 92.82 66.61 87.73 70.92 80.51C73.14 76.79 76.74 73.19 80.47 70.96C89.1 65.8 94.42 68.54 90.66 54.68C87.77 44.04 77.1399 35.7 66.2699 34.52V34.54ZM65.57 45.13C70.47 45.79 81.94 53.13 80.19 58.61C80 59.22 71.39 64.26 69.64 65.79C67 68.11 64.7599 70.87 62.7099 73.71C60.8499 76.28 60.1099 80.74 56.7399 80.17C51.3399 79.27 45.7699 70.8 45.0799 65.61C43.5099 53.92 53.9399 43.56 65.5799 45.12L65.57 45.13Z" fill="#C0A07C"/>
<path d="M100.25 79.76C74.5299 75.42 72.7499 111.69 94.8499 113.47C116.95 115.25 119.63 83.03 100.25 79.76ZM98.8599 90.35C106.01 92.48 102.54 105.68 93.9999 102.27C86.5999 99.32 90.0099 87.72 98.8599 90.35Z" fill="#C0A07C"/>
</svg>
