<?xml version="1.0" encoding="UTF-8"?>
<svg id="Camada_1" xmlns="http://www.w3.org/2000/svg" version="1.1" viewBox="0 0 409.6 409.6">
  <!-- Generator: Adobe Illustrator 29.6.1, SVG Export Plug-In . SVG Version: 2.1.1 Build 9)  -->
  <defs>
    <style>
      .st0 {
        fill: #ffffff;
      }
    </style>
  </defs>
  <path class="st0" d="M339.85,54.53c-2.45-20.26-18-35.29-37.99-38.39H85.75c-19.29,4.18-34.1,18.45-36.5,38.39l-.04,304.05c2.44,21.96,19.35,37.7,41.35,39.13l209.42-.05c21-1.81,37.83-18.06,39.91-39.08l-.04-304.05ZM317.53,354.11c-.43,9.37-5.95,17.36-15.04,19.98-69.14,2.86-138.85.39-208.2,1.26-13.28-.97-21.65-7.53-22.73-21.24V59.71c.99-12.57,8.35-19.73,20.74-20.99l202.5-.25c13.28.97,21.65,7.53,22.73,21.24v294.4Z"/>
  <path class="st0" d="M177.22,336.75c5.14-.86,31.21-.87,35.83.33,11.86,3.08,11.14,20.89-2.55,22.51-7.32.87-23.02.75-30.5.11-16.39-1.41-15.46-20.82-2.78-22.95Z"/>
  <path class="st0" d="M295.39,67.7c-1.68-6.36-6.3-8.58-12.5-9.11l-178.68.22c-6.92.99-10.41,5.2-11.03,12.07.59,81.69-1.03,163.61.82,245.16,1.63,4.93,6.49,7.53,11.48,7.89,60.43-.41,121.01.67,181.35-.54,5.93-1.57,9.2-6.39,9.11-12.5-.41-81.05.67-162.24-.54-243.2ZM272.8,300.81H116.31V81.72h156.49v219.09Z"/>
  <path class="st0" d="M147.4,113.19l93.66-.11c12.68,1.8,14.01,21.46-3.67,23.02-27.48,2.44-58.49-1.72-86.34-.08-14.27-.26-17.51-18.75-3.64-22.84Z"/>
  <path class="st0" d="M147.41,157.91l93.65-.11c12.65,1.72,12.67,20.21.08,22.31l-93.86-.07c-11.69-3.06-11.76-19.42.13-22.13Z"/>
  <path class="st0" d="M146.66,202.61l95.17-.12c12.25,3.21,11.62,20.85-1.44,22.31l-92.34-.07c-12.09-2.09-12.84-18.31-1.39-22.12Z"/>
  <path class="st0" d="M146.66,247.32l95.17-.12c12.25,3.21,11.62,20.85-1.44,22.31l-92.34-.07c-12.09-2.09-12.84-18.31-1.39-22.12Z"/>
</svg>