<?xml version="1.0" encoding="UTF-8"?>
<svg id="Camada_1" xmlns="http://www.w3.org/2000/svg" version="1.1" viewBox="0 0 384 384">
  <!-- Generator: Adobe Illustrator 29.6.1, SVG Export Plug-In . SVG Version: 2.1.1 Build 9)  -->
  <defs>
    <style>
      .st0 {
         fill: #ffffff;
      }
    </style>
  </defs>
  <path class="st0" d="M296.56,371.06H96.54c-30.09-4.89-55.25-29.41-57.38-60.47-1.37-19.91,1.01-41.42.11-61.5,3.03-20.46,33.34-20.16,35.59.62,3.21,29.62-13.83,81.78,29.69,85.71l187.38-.12c14.95-1.53,26.54-13.14,27.74-28.21V76.94c-1.42-15.86-13.24-27.09-29.02-28.32H103.86c-41.76,4.51-26.38,53.91-28.97,82.93-1.77,19.85-31.88,21.12-35.64,1.31.9-19.4-1.41-40.18-.09-59.41,2.21-32.21,29.82-58.67,61.89-60.5l194.37.12c31.83,2.96,57.1,28.53,59.91,60.38l-.12,238.42c-2.61,29.85-28.73,56.43-58.66,59.19Z"/>
  <path class="st0" d="M207.04,210.2H54.23c-5.76,0-13.59-8.45-14.73-13.95-2.15-10.44,5.94-22.42,16.83-22.42h150.72l-40.23-40.55c-12.71-17.52,9.06-38.11,26.26-24.86,21.06,23.84,48.83,45.25,69.24,69.24,8.42,9.9,8.78,18.28.34,28.35l-70.98,70.29c-16.56,11.68-37.04-9.59-24.86-25.56,9.14-11.97,27.85-27.47,39.17-38.46.69-.67,1.32-.91,1.06-2.09Z"/>
</svg>