<?xml version="1.0" encoding="UTF-8"?>
<svg id="Camada_1" xmlns="http://www.w3.org/2000/svg" version="1.1" viewBox="0 0 384 384">
  <!-- Generator: Adobe Illustrator 29.6.1, SVG Export Plug-In . SVG Version: 2.1.1 Build 9)  -->
  <defs>
    <style>
      .st0 {
        fill: #c0a07c;
      }
    </style>
  </defs>
  <path class="st0" d="M181.35,12.22C46.05,20.22-32.48,170.3,38.69,286.44c69.89,114.05,237.24,113.67,306.92-.46C421.35,161.92,325.87,3.68,181.35,12.22ZM238.52,205.89c-18.65,22.57-45.83,42.8-65.26,65.24-19.09,15.35-43.03-7.83-28.9-27.4l43.89-44.61c3.23-4.07,3.23-10.18,0-14.24l-43.89-44.61c-9.31-11.58-2.5-29.78,12.2-32.09,5.79-.91,12.26.83,16.71,4.68,19.07,22.5,47.53,43.02,65.63,65.62,7.08,8.85,6.78,18.76-.37,27.4Z"/>
</svg>