<?xml version="1.0" encoding="UTF-8"?>
<svg id="Camada_1" xmlns="http://www.w3.org/2000/svg" version="1.1" viewBox="0 0 384 384">
  <!-- Generator: Adobe Illustrator 29.6.1, SVG Export Plug-In . SVG Version: 2.1.1 Build 9)  -->
  <defs>
    <style>
      .st0 {
        fill: #c0a07c;
      }
    </style>
  </defs>
  <path class="st0" d="M107.81,255.86c.89-.13,1.49-.19,2.05.64,6.97,10.67,14.25,21.18,21.84,31.42,19.37,26.11,41.39,63.31,79.95,44.86,12.38-5.92,22.53-21.31,30.89-32.11,11.29-14.59,21.77-29.8,32.45-44.85,38.71,13.33,64.68,51.6,26.11,83.9-46.65,39.07-166.51,38.6-214.77,2.57-37.12-27.72-24.87-63.02,12.16-82.17,2.02-1.04,7.47-3.99,9.31-4.26Z"/>
  <path class="st0" d="M301.53,116.59c-3.73-61.79-59.32-106.35-120.18-101.37-56.54,4.63-102.73,57.31-98.88,114.18,2.72,40.18,46.1,103.52,69.92,136.33,8,11.02,18.51,26.52,27.63,36.12,7.23,7.61,16.14,8.06,23.61.41,8.98-9.2,19.83-25.32,27.66-36.09,26.78-36.84,73.03-103.2,70.24-149.58ZM229.81,149.94c-21.46,34.5-75.11,23.63-81.87-16.26-4.1-24.17,13.17-48.92,37.89-51.73,37.83-4.29,64.22,35.45,43.98,67.98Z"/>
</svg>