<?xml version="1.0" encoding="UTF-8"?>
<svg id="Camada_1" xmlns="http://www.w3.org/2000/svg" version="1.1" viewBox="0 0 384 384">
  <!-- Generator: Adobe Illustrator 29.6.1, SVG Export Plug-In . SVG Version: 2.1.1 Build 9)  -->
  <defs>
    <style>
      .st0 {
        fill: #c0a07c;
      }
    </style>
  </defs>
  <path class="st0" d="M171.79,101.44h130.96V22.77c0-6.6-5.4-12-12-12H126.22v83.56c0,6.6-5.4,12-12,12H32v254.91c0,6.6,5.4,12,12,12h246.75c6.6,0,12-5.4,12-12v-64.9h-130.96c-25.17,0-45.76-20.59-45.76-45.76v-103.37c0-25.17,20.59-45.76,45.76-45.76Z"/>
  <polygon class="st0" points="104 83.55 39.5 83.55 104 19.17 104 83.55"/>
  <g>
    <path class="st0" d="M266.92,187.99c-2.05-1.04-4.45-1.56-7.18-1.56h-8.13v27.26h8.13c2.74,0,5.13-.52,7.18-1.56,2.05-1.04,3.65-2.59,4.8-4.64,1.15-2.05,1.72-4.53,1.72-7.43s-.57-5.45-1.72-7.47c-1.15-2.02-2.75-3.56-4.8-4.6Z"/>
    <path class="st0" d="M198.49,186.26h-7.06v13.46h7.06c2.68,0,4.67-.6,5.95-1.81,1.29-1.2,1.93-2.85,1.93-4.93s-.64-3.72-1.93-4.93c-1.29-1.2-3.27-1.81-5.95-1.81Z"/>
    <path class="st0" d="M355.79,125.43h-195.97c-6.6,0-12,5.4-12,12v122.9c0,6.6,5.4,12,12,12h195.97c6.6,0,12-5.4,12-12v-122.9c0-6.6-5.4-12-12-12ZM222.71,204.49c-2.13,3.23-5.16,5.73-9.07,7.51-3.91,1.78-8.55,2.67-13.92,2.67h-8.29v14.12h-19.38v-57.47h27.67c5.36,0,10,.88,13.92,2.63,3.91,1.75,6.94,4.26,9.07,7.51,2.13,3.26,3.2,7.1,3.2,11.54s-1.07,8.27-3.2,11.49ZM288.88,215.37c-2.74,4.3-6.54,7.61-11.41,9.93-4.87,2.33-10.51,3.49-16.91,3.49h-28.33v-57.47h28.33c6.4,0,12.04,1.16,16.91,3.49,4.87,2.33,8.67,5.62,11.41,9.89,2.74,4.27,4.11,9.39,4.11,15.35s-1.37,11.02-4.11,15.31ZM346.76,185.94h-27.34v9.85h23.97v14.61h-23.97v18.39h-19.38v-57.47h46.72v14.61Z"/>
  </g>
</svg>