<?xml version="1.0" encoding="UTF-8"?>
<svg id="Camada_1" xmlns="http://www.w3.org/2000/svg" version="1.1" viewBox="0 0 380.04 380.04">
  <!-- Generator: Adobe Illustrator 29.6.1, SVG Export Plug-In . SVG Version: 2.1.1 Build 9)  -->
  <defs>
    <style>
      .st0 {
        fill: #c0a07c;
      }
    </style>
  </defs>
  <rect class="st0" x="118.44" y="142.18" width="61.43" height="146.52" rx="10.38" ry="10.38" transform="translate(-108.65 168.57) rotate(-45)"/>
  <path class="st0" d="M282.94,199.29v68.7c0,22.02-17.92,39.94-39.94,39.94H97.9c-22.02,0-39.94-17.92-39.94-39.94V122.9c0-22.02,17.92-39.94,39.94-39.94h145.1c11.91,0,22.61,5.25,29.93,13.54l21.42-21.42c-12.83-13.77-31.1-22.4-51.36-22.4H97.9c-38.72,0-70.22,31.5-70.22,70.22v145.1c0,38.72,31.5,70.22,70.22,70.22h145.1c38.72,0,70.22-31.5,70.22-70.22v-98.99l-30.28,30.28Z"/>
  <rect class="st0" x="223.27" y="34.75" width="61.43" height="272.38" rx="14.19" ry="14.19" transform="translate(195.27 -129.53) rotate(45)"/>
</svg>