<?xml version="1.0" encoding="UTF-8"?>
<svg id="Camada_1" xmlns="http://www.w3.org/2000/svg" version="1.1" viewBox="0 0 409.6 409.6">
  <!-- Generator: Adobe Illustrator 29.6.1, SVG Export Plug-In . SVG Version: 2.1.1 Build 9)  -->
  <defs>
    <style>
      .st0 {
        fill: #ffffff;
      }
    </style>
  </defs>
  <path class="st0" d="M204.57,10.91C96.71,10.91,9.26,98.35,9.26,206.22c0,42.93,13.86,82.61,37.33,114.84l-22.2,66.41c.31,1.31,1.2,2.51,2.57,2.12l68.3-21.49c31.19,21.1,68.81,33.43,109.3,33.43,107.87,0,195.31-87.44,195.31-195.31S312.44,10.91,204.57,10.91ZM306.91,296.81c-39.64,36.72-114.31-4.09-147.37-33.66-25.29-22.62-65.47-71.23-66.56-106.26-.66-21.21,11.69-52.86,35.74-55.49,5.43-.59,14.49-.89,18.76,3.26,2.17,2.11,22.58,50.83,22.56,53.75-.07,10.18-19.47,22.01-19.42,29.84.03,5.24,17.73,27.9,22.02,32.62,10.83,11.92,47.98,42.1,64.16,38.71,9.6-2.01,17.49-26.69,27.88-27.51,5.7-.45,53.65,22.36,54.79,25.99,3.39,10.83-4.22,31.02-12.55,38.74Z"/>
</svg>